<svg xmlns="http://www.w3.org/2000/svg" viewBox="0 0 60 60" width="32px" height="32px"><path fill="#343434" d="M28.9 5H31c1.1 0 2 .7 2 1.5v7c0 .8-.9 1.5-1.9 1.5H29c-1.1 0-1.9-.7-1.9-1.5v-7c-.1-.8.8-1.5 1.8-1.5z"><animate accumulate="none" additive="replace" attributeName="opacity" begin="-0.875s" calcMode="linear" dur="1s" fill="remove" keyTimes="0;1" repeatCount="indefinite" restart="always" values="1;0"/></path><path fill="#343434" d="M20.7 25h2.1c1.1 0 1.9.7 1.9 1.5v7c0 .8-.9 1.5-1.9 1.5h-2.1c-1.1 0-1.9-.7-1.9-1.5v-7c-.1-.8.8-1.5 1.9-1.5z" transform="rotate(45 50 50)"><animate accumulate="none" additive="replace" attributeName="opacity" begin="-0.75s" calcMode="linear" dur="1s" fill="remove" keyTimes="0;1" repeatCount="indefinite" restart="always" values="1;0"/></path><path fill="#343434" d="M28.9 45H31c1.1 0 1.9.7 1.9 1.5v7c0 .8-.9 1.5-1.9 1.5h-2.1c-1.1 0-1.9-.7-1.9-1.5v-7c0-.8.9-1.5 1.9-1.5z" transform="rotate(90 50 50)"><animate accumulate="none" additive="replace" attributeName="opacity" begin="-0.625s" calcMode="linear" dur="1s" fill="remove" keyTimes="0;1" repeatCount="indefinite" restart="always" values="1;0"/></path><path fill="#343434" d="M48.9 53.3H51c1.1 0 1.9.7 1.9 1.5v7c0 .8-.9 1.5-1.9 1.5h-2.1c-1.1 0-1.9-.7-1.9-1.5v-7c0-.8.9-1.5 1.9-1.5z" transform="rotate(135 50 50)"><animate accumulate="none" additive="replace" attributeName="opacity" begin="-0.5s" calcMode="linear" dur="1s" fill="remove" keyTimes="0;1" repeatCount="indefinite" restart="always" values="1;0"/></path><path fill="#343434" d="M68.9 45H71c1.1 0 1.9.7 1.9 1.5v7c0 .8-.9 1.5-1.9 1.5h-2.1c-1.1 0-1.9-.7-1.9-1.5v-7c0-.8.9-1.5 1.9-1.5z" transform="rotate(180 50 50)"><animate accumulate="none" additive="replace" attributeName="opacity" begin="-0.375s" calcMode="linear" dur="1s" fill="remove" keyTimes="0;1" repeatCount="indefinite" restart="always" values="1;0"/></path><path fill="#343434" d="M77.2 25h2.1c1.1 0 1.9.7 1.9 1.5v7c0 .8-.9 1.5-1.9 1.5h-2.1c-1.1 0-1.9-.7-1.9-1.5v-7c0-.8.9-1.5 1.9-1.5z" transform="rotate(225 50 50)"><animate accumulate="none" additive="replace" attributeName="opacity" begin="-0.25s" calcMode="linear" dur="1s" fill="remove" keyTimes="0;1" repeatCount="indefinite" restart="always" values="1;0"/></path><path fill="#343434" d="M68.9 5H71c1.1 0 2 .7 2 1.5v7c0 .8-.9 1.5-1.9 1.5H69c-1.1 0-1.9-.7-1.9-1.5v-7c-.1-.8.8-1.5 1.8-1.5z" transform="rotate(270 50 50)"><animate accumulate="none" additive="replace" attributeName="opacity" begin="-0.125s" calcMode="linear" dur="1s" fill="remove" keyTimes="0;1" repeatCount="indefinite" restart="always" values="1;0"/></path><path fill="#343434" d="M48.9-3.3H51c1.1 0 1.9.7 1.9 1.5v7c0 .8-.9 1.5-1.9 1.5h-2.1c-1 0-1.9-.7-1.9-1.5v-7c0-.8.9-1.5 1.9-1.5z" transform="rotate(315 50 50)"><animate accumulate="none" additive="replace" attributeName="opacity" begin="0s" calcMode="linear" dur="1s" fill="remove" keyTimes="0;1" repeatCount="indefinite" restart="always" values="1;0"/></path></svg>