<svg xmlns="http://www.w3.org/2000/svg" viewBox="0 0 60 60" width="32px" height="32px"><path fill="#343434" d="M30 4c3.3 0 6 2.7 6 6s-2.7 6-6 6-6-2.7-6-6 2.7-6 6-6z"><animate accumulate="none" additive="replace" attributeName="opacity" begin="-0.8333333333333334s" calcMode="linear" dur="1s" fill="remove" keyTimes="0;1" repeatCount="indefinite" restart="always" values="1;0"/></path><path fill="#343434" d="M22.7 31.3c3.3 0 6 2.7 6 6s-2.7 6-6 6-6-2.7-6-6 2.7-6 6-6z" transform="rotate(60 50 50)"><animate accumulate="none" additive="replace" attributeName="opacity" begin="-0.6666666666666666s" calcMode="linear" dur="1s" fill="remove" keyTimes="0;1" repeatCount="indefinite" restart="always" values="1;0"/></path><path fill="#343434" d="M42.7 51.3c3.3 0 6 2.7 6 6s-2.7 6-6 6-6-2.7-6-6 2.7-6 6-6z" transform="rotate(120 50 50)"><animate accumulate="none" additive="replace" attributeName="opacity" begin="-0.5s" calcMode="linear" dur="1s" fill="remove" keyTimes="0;1" repeatCount="indefinite" restart="always" values="1;0"/></path><path fill="#343434" d="M70 44c3.3 0 6 2.7 6 6s-2.7 6-6 6-6-2.7-6-6 2.7-6 6-6z" transform="rotate(180 50 50)"><animate accumulate="none" additive="replace" attributeName="opacity" begin="-0.3333333333333333s" calcMode="linear" dur="1s" fill="remove" keyTimes="0;1" repeatCount="indefinite" restart="always" values="1;0"/></path><path fill="#343434" d="M77.3 16.7c3.3 0 6 2.7 6 6s-2.7 6-6 6-6-2.7-6-6 2.7-6 6-6z" transform="rotate(240 50 50)"><animate accumulate="none" additive="replace" attributeName="opacity" begin="-0.16666666666666666s" calcMode="linear" dur="1s" fill="remove" keyTimes="0;1" repeatCount="indefinite" restart="always" values="1;0"/></path><path fill="#343434" d="M57.3-3.3c3.3 0 6 2.7 6 6s-2.7 6-6 6-6-2.7-6-6 2.7-6 6-6z" transform="rotate(300 50 50)"><animate accumulate="none" additive="replace" attributeName="opacity" begin="0s" calcMode="linear" dur="1s" fill="remove" keyTimes="0;1" repeatCount="indefinite" restart="always" values="1;0"/></path></svg>