<svg xmlns="http://www.w3.org/2000/svg" viewBox="0 0 20 20"><path d="M17.3 3.3H15V1c0-.6-.4-1-1-1h-1.3c-.6 0-1 .4-1 1v2.3H8.3V1c0-.6-.4-1-1-1H6c-.7 0-1 .4-1 1v2.3H2.7c-.6 0-1 .4-1 1V19c0 .6.4 1 1 1h14.7c.6 0 1-.4 1-1V4.3c-.1-.6-.4-1-1.1-1zM8.167 8.188L9.65 6.706a.447.447 0 01.162-.11.473.473 0 01.376 0 .533.533 0 01.162.11l1.472 1.476a.5.5 0 010 .701.473.473 0 01-.348.145.482.482 0 01-.347-.145l-.638-.637v1.778a.492.492 0 11-.984 0V8.252l-.637.637a.5.5 0 01-.701 0 .5.5 0 010-.7zm-1.28 4.94a.5.5 0 010 .701.472.472 0 01-.348.145.482.482 0 01-.347-.145l-1.483-1.482a.448.448 0 01-.11-.162.473.473 0 010-.377.534.534 0 01.11-.162l1.477-1.477a.5.5 0 01.7 0 .5.5 0 010 .7l-.636.638h1.772a.492.492 0 110 .985H6.25l.637.637zm4.958 2.682l-1.483 1.483a.448.448 0 01-.162.11.455.455 0 01-.191.04.539.539 0 01-.191-.04.535.535 0 01-.163-.11L8.173 15.81a.5.5 0 010-.7.5.5 0 01.7 0l.638.637v-1.773a.492.492 0 11.984 0v1.773l.637-.638a.5.5 0 01.712.7zm3.556-3.625a.447.447 0 01-.11.156l-1.483 1.483a.473.473 0 01-.347.145.482.482 0 01-.348-.145.5.5 0 010-.701l.637-.637h-1.772a.492.492 0 110-.985h1.766l-.637-.637a.5.5 0 010-.7.5.5 0 01.701 0l1.483 1.482a.448.448 0 01.11.162.473.473 0 010 .377z" fill="#f05a29"/></svg>