<svg viewBox="0 0 179.95219 180.10727" id="ico-rocket"><path d="M159.256.145c-15.38.352-24.448 1.164-34.75 3.034C111.032 5.647 99.355 9.95 89.054 16.3 78.08 23.005 65.733 35.105 56.985 47.63c-1.41 2.01-2.47 3.21-3.034 3.385-.492.106-2.785.46-5.114.776C30.88 54.156 14.123 63.928 2.693 78.745 1.635 80.12.54 81.848.33 82.554c-.67 2.01-.283 5.362.846 7.126 1.41 2.222 3.07 3.104 8.36 4.445 2.61.67 6.457 1.87 8.573 2.716 3.527 1.342 12.31 5.61 13.017 6.316.176.14-.177 2.152-.74 4.445-1.553 6.033-2.612 11.572-2.612 13.69 0 1.198.247 2.362.776 3.385.53 1.094 4.73 5.54 13.02 13.83 13.122 13.158 13.898 13.757 17.285 13.757 1.905 0 7.655-1.093 13.51-2.575 2.295-.6 4.305-.988 4.446-.882.6.353 5.716 11.077 6.95 14.5.707 1.94 1.66 5.15 2.118 7.126 1.023 4.27 1.517 5.574 2.716 6.986 2.046 2.434 6.244 3.386 9.278 2.15 2.893-1.233 9.42-6.878 13.864-12.028 4.128-4.833 6.74-8.68 9.49-14.11 3.81-7.516 5.997-14.465 7.02-22.226.318-2.33.67-4.622.777-5.116.176-.564 1.375-1.622 3.422-3.07 3.774-2.61 9.7-7.3 12.876-10.194 2.858-2.575 10.443-10.654 12.278-13.018 13.123-17.04 19.473-35.77 21.625-63.5.53-7.09.952-27.48.6-29.457-.46-2.575-1.94-4.62-4.163-5.715-2.505-1.234-3.422-1.27-16.404-.987zm4.057 20.53c0 2.19-.177 6.67-.353 9.985-1.164 19.438-4.163 33.232-9.737 44.91l-1.905 4.02-.81-1.023c-.425-.53-1.095-1.482-1.483-2.046-.81-1.304-6.068-7.372-9.842-11.394-8.22-8.678-23.883-21.13-38.242-30.41-2.54-1.657-4.62-3.104-4.655-3.245 0-.35 5.115-3.244 8.82-4.973 12.91-6.068 31.68-9.49 53.198-9.737l5.01-.035zm-77.26 22.297c1.06.67 3.282 2.08 4.905 3.104 7.937 5.01 19.156 13.124 25.54 18.486 7.833 6.632 15.876 14.71 19.51 19.65 2.01 2.716 5.044 7.373 5.256 8.043.317.988-.81 2.364-5.715 6.914-13.936 12.84-32.42 23.318-53.8 30.48-6.103 2.045-18.027 5.256-19.473 5.256-1.023 0-17.145-16.122-17.145-17.145 0-1.446 3.21-13.37 5.256-19.473 5.82-17.462 14.358-33.83 24.2-46.46 3.105-3.987 8.61-10.055 9.103-10.055.248 0 1.306.53 2.364 1.2zM45.486 66.608c0 .106-.67 1.552-1.447 3.28a256.7 256.7 0 0 0-2.504 5.398c-1.447 3.14-5.116 12.312-5.398 13.476-.14.565-.317.988-.388.988-.07 0-2.01-.952-4.304-2.08-4.127-2.083-10.336-4.728-12.135-5.152-.566-.14-.99-.423-.954-.67.035-.564 5.01-4.904 8.255-7.126 1.553-1.094 4.728-2.893 7.057-4.057 5.186-2.54 11.818-4.798 11.818-4.057zm68.086 68.44c0 1.093-2.257 7.3-3.915 10.794-.952 2.01-2.787 5.186-4.022 7.055-2.328 3.458-7.055 9.067-7.514 8.926-.142-.07-.39-.53-.565-1.06-.776-2.54-3.28-8.43-5.186-12.17-1.13-2.292-2.082-4.233-2.082-4.303 0-.07.423-.247.987-.388 1.764-.424 11.113-4.304 16.475-6.81 2.928-1.375 5.398-2.504 5.574-2.504.14-.035.247.177.247.46z" fill="#f15d30"></path></svg>